<?xml version="1.0" encoding="utf-8"?>
<!-- Generator: Adobe Illustrator 15.0.2, SVG Export Plug-In . SVG Version: 6.00 Build 0)  -->
<!DOCTYPE svg PUBLIC "-//W3C//DTD SVG 1.1//EN" "http://www.w3.org/Graphics/SVG/1.1/DTD/svg11.dtd">
<svg version="1.1" id="Layer_1" xmlns="http://www.w3.org/2000/svg" xmlns:xlink="http://www.w3.org/1999/xlink" x="0px" y="0px"
	 width="256px" height="256px" viewBox="0 0 256 256" enable-background="new 0 0 256 256" xml:space="preserve">
<polyline fill="#86C440" points="9.562,7.562 151.577,7.562 246.14,156.412 9.974,156.412 "/>
<polyline fill="#55803A" points="64.871,174.742 192.312,250.232 246.14,156.411 76.217,156.411 "/>
<g>
	<path fill="#FFFFFF" d="M72.281,48.079v3.813h18.932v8.989H72.281v58.974h-9.534V60.881H51.034v-8.989h11.713v-3.677
		c0-24.924,16.48-24.924,21.928-24.924c2.452,0,4.631,0.272,6.538,0.817v8.717c-1.362-0.272-2.996-0.545-4.903-0.545
		C80.045,32.279,72.281,32.279,72.281,48.079z"/>
</g>
<g>
	<path fill="#FFFFFF" d="M150.423,71.504v51.211c0,10.76-5.176,23.426-29.555,23.426c-7.899,0-14.437-1.226-19.34-2.452v-9.261
		c4.358,1.227,10.623,2.452,18.25,2.452c18.387,0,20.838-7.083,20.838-13.893v-6.81c-5.039,1.635-10.487,2.451-15.935,2.451
		c-13.756,0-30.1-5.72-30.1-33.096c0-30.236,18.114-34.867,28.874-34.867C148.516,50.667,150.423,66.602,150.423,71.504z
		 M140.616,71.096c0-7.627-5.721-11.441-17.161-11.441c-8.172,0-19.068,2.724-19.068,25.878c0,21.111,10.215,23.971,20.294,23.971
		c5.584,0,10.896-1.09,15.935-3.132V71.096z"/>
</g>
<g>
	<path fill="#FFFFFF" d="M157.621,108.959h10.896v10.896h-10.896V108.959z"/>
</g>
</svg>
